<svg width="18" height="23" viewBox="0 0 18 23" fill="none" xmlns="http://www.w3.org/2000/svg">
<path d="M1 11C1 9.89543 1.89543 9 3 9H15C16.1046 9 17 9.89543 17 11V16C17 19.3137 14.3137 22 11 22H7C3.68629 22 1 19.3137 1 16V11Z" stroke="white" stroke-width="2"/>
<path d="M3 7C3 3.68629 5.68629 1 9 1V1C12.3137 1 15 3.68629 15 7V9H3V7Z" stroke="white" stroke-width="2"/>
<circle cx="9" cy="14" r="2" fill="white"/>
<path d="M8 15H10V17C10 17.5523 9.55228 18 9 18C8.44772 18 8 17.5523 8 17V15Z" fill="white"/>
</svg>
